#N canvas 0 0 1711 989 12;
#X obj 55 291 loadbang;
#X msg 55 323 60000;
#X obj 86 385 /;
#X obj 262 335 * 4;
#X obj 218 401 metro;
#X obj 376 407 metro;
#X obj 350 339 * 1;
#X obj 66 480 sel 0;
#X msg 66 546 -1;
#X obj 121 529 int 1;
#X obj 180 530 + 1;
#X obj 121 554 % 2;
#X obj 121 451 r whole_note;
#X obj 376 440 s 4th_note;
#X obj 262 302 r 4th_time;
#X obj 269 401 s whole_time;
#X obj 218 437 s whole_note;
#X obj 86 423 s 4th_time;
#X obj 553 652 delay 5;
#X obj 490 654 delay;
#X obj 457 581 r whole_time;
#X msg 494 706 1 500;
#X msg 553 707 0 500;
#X obj 494 747 line;
#X obj 251 798 *~;
#X obj 251 832 *~ 0.5;
#X obj 458 1184 dac~;
#X obj 115 347 t b f;
#X obj 64 511 bang;
#X obj 121 485 bang;
#X obj 174 321 r s_on;
#X obj 211 589 r s_on;
#X obj 35 84 bng 19 250 50 0 s_c r_c empty 0 -10 0 12 #fcfcfc #000000 #000000;
#X obj 78 101 bng 19 250 50 0 s_d r_d empty 0 -10 0 12 #fcfcfc #000000 #000000;
#X obj 110 76 bng 19 250 50 0 s_e r_e empty 0 -10 0 12 #fcfcfc #000000 #000000;
#X obj 112 49 bng 19 250 50 0 s_f r_f empty 0 -10 0 12 #fcfcfc #000000 #000000;
#X obj 94 15 bng 19 250 50 0 s_g r_g empty 0 -10 0 12 #fcfcfc #000000 #000000;
#X obj 57 12 bng 19 250 50 0 s_a r_a empty 0 -10 0 12 #fcfcfc #000000 #000000;
#X obj 28 41 bng 19 250 50 0 s_b r_b empty 0 -10 0 12 #fcfcfc #000000 #000000;
#X obj 216 477 r s_c;
#X msg 216 506 60;
#X obj 264 477 r s_d;
#X msg 264 506 62;
#X obj 309 477 r s_e;
#X msg 309 506 64;
#X obj 354 477 r s_f;
#X msg 354 506 65;
#X obj 400 477 r s_g;
#X msg 400 506 67;
#X obj 447 477 r s_a;
#X msg 447 506 69;
#X obj 491 477 r s_b;
#X msg 491 506 71;
#X obj 354 579 mtof;
#X obj 300 607 *;
#X msg 300 574 1;
#X obj 522 617 - 500;
#X obj 111 816 *~;
#X obj 198 818 line;
#X obj 198 752 sel 1;
#X msg 198 783 1 500;
#X obj 457 771 * 2;
#X obj 457 806 - 100;
#X obj 312 832 delay;
#X msg 312 858 0 100;
#X obj 121 585 sel 1;
#X obj 121 611 int 1;
#X obj 180 612 + 1;
#X obj 121 636 % 2;
#X obj 121 662 sel 1;
#X obj 110 774 lop~ 200;
#X msg 115 320 70, f 4;
#X obj 163 30 vsl 19 162 0 127 0 0 s-mul r-mul empty 0 -9 0 12 #fcfcfc #000000 #000000 0 1;
#X obj 345 606 r s-mul;
#X obj 251 756 lop~ 400;
#X obj 346 644 / 127;
#X obj 306 689 * 1.01;
#X obj 625 271 loadbang;
#X obj 615 607 bng 19 250 50 0 s_boid r_boid empty 0 -10 0 12 #fcfcfc #000000 #000000;
#X obj 514 387 s r_boid;
#X obj 514 354 boids3d 16;
#X msg 640 516 inertia 8;
#X msg 743 432 repel 2;
#X msg 740 390 match 1;
#X msg 639 392 attract 3;
#X msg 739 345 center 1;
#X msg 640 346 minspeed 0.5;
#X obj 192 31 vsl 19 162 0.01 10 0 0 s-vol r-vol empty 0 -9 0 12 #fcfcfc #000000 #000000 0 1;
#X obj 235 868 r s-vol;
#X obj 235 895 / 10;
#X msg 641 303 neighbors 2;
#X msg 436 288 10;
#X obj 436 316 s r-vol;
#X obj 514 292 s s_on;
#X msg 213 659 1;
#X obj 235 948 * -1;
#X obj 236 921 - 1;
#X obj 357 925 print;
#X obj 514 263 del 100;
#X obj 357 889 r s_sym;
#X floatatom 655 607 5 0 0 0 - r_posx s_posx 0;
#X floatatom 725 608 5 0 0 0 - r_posy s_posy 0;
#X msg 642 696 attractpt \$1 \$2 \$3;
#X obj 641 665 pack 0 0 0;
#X floatatom 797 608 5 0 0 0 - r_posz s_posz 0;
#X obj 641 634 r s_posx;
#X obj 711 634 r s_posy;
#X obj 784 634 r s_posz;
#X obj 252 723 phasor~;
#X obj 311 722 phasor~;
#X obj 109 742 osc~;
#X obj 140 949 freeverb~;
#X msg 640 561 prefdist 10;
#X msg 640 474 edgedist 3.5;
#X msg 739 473 speed 1;
#X msg 639 433 avoid 5;
#X msg 737 561 attract 1;
#X obj 514 317 metro 15;
#X msg 738 303 maxspeed 1;
#X msg 738 514 accel 1;
#X obj 1093 354 expr~ ($v1 - 0.5) *2;
#X obj 1093 378 *~ 0.5;
#X obj 1064 153 / 12;
#X obj 1064 179 t b f;
#X msg 1064 201 2;
#X obj 1065 226 pow;
#X obj 2073 270 phasor~;
#X obj 2073 320 expr~ ($v1 - 0.5) *2;
#X obj 2073 344 *~ 0.5;
#X obj 2071 123 / 12;
#X obj 2071 149 t b f;
#X msg 2071 171 2;
#X obj 2070 195 pow;
#X obj 3010 245 phasor~;
#X obj 3010 295 expr~ ($v1 - 0.5) *2;
#X obj 3010 319 *~ 0.5;
#X obj 2970 96 / 12;
#X obj 2970 122 t b f;
#X msg 2970 144 2;
#X obj 2971 169 pow;
#X obj 1069 683 noise~;
#X obj 1069 713 lop~ 3000;
#X obj 1069 743 *~ 0.1;
#X obj 1101 823 osc~;
#X obj 1109 797 / 10;
#X obj 1093 433 *~ 6;
#X obj 1174 430 *~ 6;
#X obj 1259 430 *~ -4;
#X obj 2074 403 *~ 6;
#X obj 2151 402 *~ 5;
#X obj 2236 400 *~ 0;
#X obj 3011 373 *~ 4;
#X obj 3089 372 *~ 4;
#X obj 3168 370 *~ -2;
#X obj 1330 830 *~ 0.5;
#X obj 2705 1611 *~;
#X obj 2980 1611 *~;
#X obj 1331 889 *~ 6;
#X obj 1331 862 bp~ 630 30;
#X obj 1418 862 bp~ 1800 80;
#X obj 1418 889 *~ 5;
#X obj 1505 886 *~ 0;
#X obj 2877 1577 *~ 0;
#X obj 2705 1552 bp~ 430 30;
#X obj 2787 1552 bp~ 1300 80;
#X obj 1505 859 bp~ 2550 100;
#X obj 2877 1550 bp~ 2550 100;
#X obj 2787 1579 *~ 2;
#X obj 2705 1579 *~ 5;
#X obj 2981 1546 bp~ 535 30;
#X obj 2981 1573 *~ 7;
#X obj 3068 1546 bp~ 875 80;
#X obj 3068 1573 *~ 3;
#X obj 3147 1545 bp~ 2720 100;
#X obj 3147 1572 *~ -4;
#X obj 1331 917 *~;
#X obj 1067 882 bp~ 844 30;
#X obj 1067 909 *~ 6;
#X obj 1146 882 bp~ 1210 80;
#X obj 1146 909 *~ 6;
#X obj 1234 864 bp~ 2700 100;
#X obj 1333 658 noise~;
#X obj 1333 688 lop~ 3000;
#X obj 1333 718 *~ 0.1;
#X obj 1331 802 *~;
#X obj 1365 801 osc~;
#X obj 1373 775 / 10;
#X obj 2710 1513 *~ 0.5;
#X obj 2712 1346 noise~;
#X obj 2712 1376 lop~ 3000;
#X obj 2712 1406 *~ 0.1;
#X obj 2711 1485 *~;
#X obj 2746 1485 osc~;
#X obj 2754 1459 / 10;
#X obj 2980 1519 *~ 0.5;
#X obj 2982 1355 noise~;
#X obj 2982 1385 lop~ 3000;
#X obj 2982 1415 *~ 0.1;
#X obj 2981 1491 *~;
#X obj 3012 1489 osc~;
#X obj 3020 1463 / 10;
#X obj 1664 943 *~;
#X obj 1666 838 *~ 0.5;
#X obj 1667 669 noise~;
#X obj 1667 699 lop~ 3000;
#X obj 1667 729 *~ 0.1;
#X obj 1667 809 *~;
#X obj 1697 806 osc~;
#X obj 1698 783 / 10;
#X obj 1665 878 bp~ 346 30;
#X obj 1752 878 bp~ 960 80;
#X obj 1830 875 bp~ 2400 100;
#X obj 1830 901 *~ -2;
#X obj 1752 905 *~ 4;
#X obj 1665 905 *~ 4;
#X obj 1093 304 phasor~ 400;
#X obj 2972 66 r fu-s;
#X obj 1145 715 r va-s;
#X obj 1363 744 r ve-s;
#X obj 3017 1440 r vo-s;
#X obj 1701 756 r vu-s;
#X obj 1420 920 r te-s;
#X obj 2789 1617 r ti-s;
#X obj 3100 1614 r to-s;
#X obj 1757 943 r tu-s;
#X obj 1093 459 *~ 0.5;
#X obj 2074 429 *~ 0.5;
#X obj 3012 399 *~ 0.5;
#X obj 1236 908 *~ -4;
#X obj 1068 847 *~ 0.5;
#X obj 1070 824 *~;
#X obj 2755 1432 r vi-s;
#X obj 2073 486 *~;
#X obj 2178 436 r tfe-s;
#X obj 3013 454 *~;
#X obj 3108 406 r tfu-s;
#X obj 1094 330 expr~ $v1 > 0.1;
#X obj 2073 296 expr~ $v1 > 0.1;
#X obj 3011 271 expr~ $v1 > 0.1;
#X obj 1068 957 *~;
#X obj 3877 83 vsl 19 162 -40 0 0 0 faa-s faa-r empty 0 -9 0 12 #fcfcfc #000000 #000000 0 1;
#X obj 2794 597 vsl 19 162 0 1 0 0 ta-s ta-r empty 0 -9 0 12 #fcfcfc #000000 #000000 0 1;
#X obj 3247 595 vsl 19 162 0 1 0 0 ta2-s ta2-r empty 0 -9 0 12 #fcfcfc #000000 #000000 0 1;
#X obj 1179 945 r ta-s;
#X obj 1092 508 *~;
#X obj 2788 786 vsl 19 162 0 100 0 0 va-s va-r empty 0 -9 0 12 #fcfcfc #000000 #000000 0 1;
#X obj 3242 780 vsl 19 162 0 100 0 0 va2-s va2-r empty 0 -9 0 12 #fcfcfc #000000 #000000 0 1;
#X obj 3879 270 vsl 19 162 0 1 0 0 tfaa-s tfaa-r empty 0 -9 0 12 #fcfcfc #000000 #000000 0 1;
#X obj 3909 263 vsl 19 162 0 1 0 0 tfaa1-s tfaa1-r empty 0 -9 0 12 #fcfcfc #000000 #000000 0 1;
#X obj 3948 264 vsl 19 162 0 1 0 0 tfaa2-s tfaa2-r empty 0 -9 0 12 #fcfcfc #000000 #000000 0 1;
#X obj 4030 269 vsl 19 162 0 1 0 0 tfe-s tfe-r empty 0 -9 0 12 #fcfcfc #000000 #000000 0 1;
#X obj 4061 267 vsl 19 162 0 1 0 0 tfe1-s tfe1-r empty 0 -9 0 12 #fcfcfc #000000 #000000 0 1;
#X obj 3912 84 vsl 19 162 -40 0 0 0 faa1-s faa1-r empty 0 -9 0 12 #fcfcfc #000000 #000000 0 1;
#X obj 3949 82 vsl 19 162 -40 0 0 0 faa2-s faa2-r empty 0 -9 0 12 #fcfcfc #000000 #000000 0 1;
#X obj 4034 81 vsl 19 162 -40 0 0 0 fe-s fe-r empty 0 -9 0 12 #fcfcfc #000000 #000000 0 1;
#X obj 4064 79 vsl 19 162 -40 0 0 0 fe1-s fe1-r empty 0 -9 0 12 #fcfcfc #000000 #000000 0 1;
#X obj 1065 122 r faa-s;
#X obj 1169 470 r tfaa-s;
#X obj 998 539 *~ 0.0001;
#X obj 1010 484 osc~ 1;
#X obj 3013 426 hip~ 500;
#X obj 2180 463 line 0 10;
#X obj 1169 493 line 0 10;
#X obj 3103 431 line 0 10;
#X obj 1129 987 line 0 10;
#X obj 1400 987 line 0 10;
#X obj 2757 1677 line 0 10;
#X obj 3020 1662 line 0 10;
#X obj 1773 997 line 0 10;
#X obj 1062 252 - 0;
#X obj 1091 254 / 1;
#X obj 2070 221 - 0;
#X obj 2105 220 / 1;
#X obj 1093 484 hip~ 200;
#X obj 2074 454 hip~ 200;
#X obj 1259 403 bp~ 2700 100;
#X obj 1174 403 bp~ 1210 80;
#X obj 1093 406 bp~ 844 30;
#X obj 2236 373 bp~ 2550 100;
#X obj 2151 375 bp~ 1800 80;
#X obj 2074 376 bp~ 630 30;
#X obj 1068 988 hip~ 5;
#X obj 1330 942 hip~ 5;
#X obj 2706 1641 hip~ 5;
#X obj 2981 1634 hip~ 5;
#X obj 1666 986 hip~ 5;
#X obj 2973 194 - 0;
#X obj 3004 193 / 1;
#X obj 3011 346 bp~ 346 30;
#X obj 3089 345 bp~ 960 80;
#X obj 3169 343 bp~ 2400 100;
#X obj 1375 349 expr~ ($v1 - 0.5) *2;
#X obj 1375 373 *~ 0.5;
#X obj 1343 149 / 12;
#X obj 1343 175 t b f;
#X msg 1343 197 2;
#X obj 1344 222 pow;
#X obj 1375 428 *~ 6;
#X obj 1456 425 *~ 6;
#X obj 1541 425 *~ -4;
#X obj 1375 299 phasor~ 400;
#X obj 1375 454 *~ 0.5;
#X obj 1376 325 expr~ $v1 > 0.1;
#X obj 1374 503 *~;
#X obj 1460 485 line 0 10;
#X obj 1344 247 - 0;
#X obj 1373 249 / 1;
#X obj 1375 479 hip~ 200;
#X obj 1541 398 bp~ 2700 100;
#X obj 1456 398 bp~ 1210 80;
#X obj 1375 401 bp~ 844 30;
#X obj 1427 273 + 130;
#X obj 1671 330 expr~ ($v1 - 0.5) *2;
#X obj 1671 354 *~ 0.5;
#X obj 1639 130 / 12;
#X obj 1639 156 t b f;
#X msg 1639 178 2;
#X obj 1640 203 pow;
#X obj 1671 409 *~ 6;
#X obj 1752 406 *~ 6;
#X obj 1837 406 *~ -4;
#X obj 1671 280 phasor~ 400;
#X obj 1671 435 *~ 0.5;
#X obj 1672 306 expr~ $v1 > 0.1;
#X obj 1670 484 *~;
#X obj 1751 463 line 0 10;
#X obj 1640 228 - 0;
#X obj 1669 230 / 1;
#X obj 1671 460 hip~ 200;
#X obj 1839 380 bp~ 2700 100;
#X obj 1752 379 bp~ 1210 80;
#X obj 1671 382 bp~ 844 30;
#X obj 1336 117 r faa1-s;
#X obj 1621 95 r faa2-s;
#X obj 1462 459 r tfaa1-s;
#X obj 1755 439 r tfaa2-s;
#X obj 2070 92 r fe-s;
#X obj 2344 265 phasor~;
#X obj 2344 315 expr~ ($v1 - 0.5) *2;
#X obj 2344 339 *~ 0.5;
#X obj 2342 118 / 12;
#X obj 2342 144 t b f;
#X msg 2342 166 2;
#X obj 2341 190 pow;
#X obj 2345 398 *~ 6;
#X obj 2422 397 *~ 5;
#X obj 2507 395 *~ 0;
#X obj 2345 424 *~ 0.5;
#X obj 2344 481 *~;
#X obj 2344 291 expr~ $v1 > 0.1;
#X obj 2451 458 line 0 10;
#X obj 2341 216 - 0;
#X obj 2376 215 / 1;
#X obj 2345 449 hip~ 200;
#X obj 2507 368 bp~ 2550 100;
#X obj 2422 370 bp~ 1800 80;
#X obj 2345 371 bp~ 630 30;
#X obj 2341 87 r fe1-s;
#X obj 2449 431 r tfe1-s;
#X obj 2622 259 phasor~;
#X obj 2622 309 expr~ ($v1 - 0.5) *2;
#X obj 2622 333 *~ 0.5;
#X obj 2620 112 / 12;
#X obj 2620 138 t b f;
#X msg 2620 160 2;
#X obj 2619 184 pow;
#X obj 2623 392 *~ 6;
#X obj 2700 391 *~ 5;
#X obj 2785 389 *~ 0;
#X obj 2623 418 *~ 0.5;
#X obj 2622 475 *~;
#X obj 2622 285 expr~ $v1 > 0.1;
#X obj 2729 452 line 0 10;
#X obj 2619 210 - 0;
#X obj 2654 209 / 1;
#X obj 2623 443 hip~ 200;
#X obj 2785 362 bp~ 2550 100;
#X obj 2700 364 bp~ 1800 80;
#X obj 2623 365 bp~ 630 30;
#X obj 2423 237 + 130;
#X obj 1723 254 + 200;
#X obj 1372 275 * 370;
#X obj 1668 256 * 700;
#X obj 1090 280 * 290;
#X obj 1131 280 + 60;
#X obj 2104 242 * 290;
#X obj 2152 242 + 60;
#X obj 2375 237 * 370;
#X obj 2652 231 * 700;
#X obj 2701 231 + 200;
#X obj 4096 267 vsl 19 162 0 1 0 0 tfe2-s tfe2-r empty 0 -9 0 12 #fcfcfc #000000 #000000 0 1;
#X obj 4099 79 vsl 19 162 -40 0 0 0 fe2-s fe2-r empty 0 -9 0 12 #fcfcfc #000000 #000000 0 1;
#X obj 2727 425 r tfe2-s;
#X obj 2619 81 r fe2-s;
#X obj 3248 221 - 0;
#X obj 3283 220 / 1;
#X obj 3516 216 - 0;
#X obj 3551 215 / 1;
#X obj 3330 242 + 130;
#X obj 3282 242 * 370;
#X obj 3549 237 * 700;
#X obj 3598 237 + 200;
#X obj 3002 215 * 290;
#X obj 3050 214 + 60;
#X obj 3285 273 phasor~;
#X obj 3285 323 expr~ ($v1 - 0.5) *2;
#X obj 3285 347 *~ 0.5;
#X obj 3245 124 / 12;
#X obj 3245 150 t b f;
#X msg 3245 172 2;
#X obj 3246 197 pow;
#X obj 3286 401 *~ 4;
#X obj 3364 400 *~ 4;
#X obj 3443 398 *~ -2;
#X obj 3287 427 *~ 0.5;
#X obj 3288 482 *~;
#X obj 3286 299 expr~ $v1 > 0.1;
#X obj 3288 454 hip~ 500;
#X obj 3378 459 line 0 10;
#X obj 3286 374 bp~ 346 30;
#X obj 3364 373 bp~ 960 80;
#X obj 3444 371 bp~ 2400 100;
#X obj 3385 434 r tfu1-s;
#X obj 3247 94 r fu1-s;
#X obj 3557 266 phasor~;
#X obj 3557 316 expr~ ($v1 - 0.5) *2;
#X obj 3557 340 *~ 0.5;
#X obj 3517 117 / 12;
#X obj 3517 143 t b f;
#X msg 3517 165 2;
#X obj 3518 190 pow;
#X obj 3558 394 *~ 4;
#X obj 3636 393 *~ 4;
#X obj 3715 391 *~ -2;
#X obj 3559 420 *~ 0.5;
#X obj 3560 475 *~;
#X obj 3558 292 expr~ $v1 > 0.1;
#X obj 3560 447 hip~ 500;
#X obj 3650 452 line 0 10;
#X obj 3558 367 bp~ 346 30;
#X obj 3636 366 bp~ 960 80;
#X obj 3716 364 bp~ 2400 100;
#X obj 3519 87 r fu2-s;
#X obj 3657 427 r tfu2-s;
#X obj 4182 271 vsl 19 162 0 1 0 0 tfu-s tfu-r empty 0 -9 0 12 #fcfcfc #000000 #000000 0 1;
#X obj 4213 269 vsl 19 162 0 1 0 0 tfu1-s tfu1-r empty 0 -9 0 12 #fcfcfc #000000 #000000 0 1;
#X obj 4186 83 vsl 19 162 -40 0 0 0 fu-s fu-r empty 0 -9 0 12 #fcfcfc #000000 #000000 0 1;
#X obj 4216 81 vsl 19 162 -40 0 0 0 fu1-s fu1-r empty 0 -9 0 12 #fcfcfc #000000 #000000 0 1;
#X obj 4248 269 vsl 19 162 0 1 0 0 tfu2-s tfu2-r empty 0 -9 0 12 #fcfcfc #000000 #000000 0 1;
#X obj 4251 81 vsl 19 162 -40 0 0 0 fu2-s fu2-r empty 0 -9 0 12 #fcfcfc #000000 #000000 0 1;
#X obj 1128 748 - 0;
#X obj 1197 776 + 0;
#X obj 1156 776 * 20;
#X obj 1060 1114 noise~;
#X obj 1060 1144 lop~ 3000;
#X obj 1060 1174 *~ 0.1;
#X obj 1092 1254 osc~;
#X obj 1100 1228 / 10;
#X obj 1058 1313 bp~ 844 30;
#X obj 1058 1340 *~ 6;
#X obj 1137 1313 bp~ 1210 80;
#X obj 1137 1340 *~ 6;
#X obj 1225 1295 bp~ 2700 100;
#X obj 1227 1339 *~ -4;
#X obj 1059 1278 *~ 0.5;
#X obj 1061 1255 *~;
#X obj 1059 1388 *~;
#X obj 1128 1439 line 0 10;
#X obj 1059 1419 hip~ 5;
#X obj 1179 1173 - 0;
#X obj 1248 1199 + 20;
#X obj 1131 1116 r va1-s;
#X obj 1178 1397 r ta1-s;
#X obj 3024 605 vsl 19 162 0 1 0 0 ta1-s ta1-r empty 0 -9 0 12 #fcfcfc #000000 #000000 0 1;
#X obj 3018 794 vsl 19 162 0 100 0 0 va1-s va1-r empty 0 -9 0 12 #fcfcfc #000000 #000000 0 1;
#X obj 1208 1175 / 100;
#X obj 1157 750 / 100;
#X obj 1064 1511 noise~;
#X obj 1064 1541 lop~ 3000;
#X obj 1064 1571 *~ 0.1;
#X obj 1096 1651 osc~;
#X obj 1104 1625 / 10;
#X obj 1062 1710 bp~ 844 30;
#X obj 1062 1737 *~ 6;
#X obj 1141 1710 bp~ 1210 80;
#X obj 1141 1737 *~ 6;
#X obj 1229 1692 bp~ 2700 100;
#X obj 1231 1736 *~ -4;
#X obj 1063 1675 *~ 0.5;
#X obj 1065 1652 *~;
#X obj 1063 1785 *~;
#X obj 1132 1836 line 0 10;
#X obj 1063 1816 hip~ 5;
#X obj 1183 1570 - 0;
#X obj 1212 1572 / 100;
#X obj 1135 1514 r va2-s;
#X obj 1182 1794 r ta2-s;
#X obj 1211 1597 * 60;
#X obj 1252 1596 + 20;
#X obj 1206 1200 * 60;
#X obj 1423 753 - 0;
#X obj 1492 781 + 0;
#X obj 1451 781 * 20;
#X obj 1452 755 / 100;
#X obj 1372 1258 *~ 0.5;
#X obj 1373 1317 *~ 6;
#X obj 1373 1290 bp~ 630 30;
#X obj 1460 1290 bp~ 1800 80;
#X obj 1460 1317 *~ 5;
#X obj 1547 1314 *~ 0;
#X obj 1547 1287 bp~ 2550 100;
#X obj 1373 1345 *~;
#X obj 1375 1086 noise~;
#X obj 1375 1116 lop~ 3000;
#X obj 1375 1146 *~ 0.1;
#X obj 1373 1230 *~;
#X obj 1407 1229 osc~;
#X obj 1415 1203 / 10;
#X obj 1442 1415 line 0 10;
#X obj 1372 1370 hip~ 5;
#X obj 1465 1181 - 0;
#X obj 1494 1183 / 100;
#X obj 1404 1172 r ve1-s;
#X obj 1463 1348 r te1-s;
#X obj 1392 1687 *~ 0.5;
#X obj 1393 1746 *~ 6;
#X obj 1393 1719 bp~ 630 30;
#X obj 1480 1719 bp~ 1800 80;
#X obj 1480 1746 *~ 5;
#X obj 1567 1743 *~ 0;
#X obj 1567 1716 bp~ 2550 100;
#X obj 1393 1774 *~;
#X obj 1395 1515 noise~;
#X obj 1395 1545 lop~ 3000;
#X obj 1395 1575 *~ 0.1;
#X obj 1393 1659 *~;
#X obj 1427 1658 osc~;
#X obj 1435 1632 / 10;
#X obj 1462 1844 line 0 10;
#X obj 1392 1799 hip~ 5;
#X obj 1485 1610 - 0;
#X obj 1514 1612 / 100;
#X obj 1425 1601 r ve2-s;
#X obj 1482 1777 r te2-s;
#X obj 1773 756 - 0;
#X obj 1842 784 + 0;
#X obj 1801 784 * 20;
#X obj 1802 758 / 100;
#X obj 1711 1353 *~;
#X obj 1713 1248 *~ 0.5;
#X obj 1714 1079 noise~;
#X obj 1714 1109 lop~ 3000;
#X obj 1714 1139 *~ 0.1;
#X obj 1714 1219 *~;
#X obj 1744 1216 osc~;
#X obj 1745 1193 / 10;
#X obj 1712 1288 bp~ 346 30;
#X obj 1799 1288 bp~ 960 80;
#X obj 1877 1285 bp~ 2400 100;
#X obj 1877 1311 *~ -2;
#X obj 1799 1315 *~ 4;
#X obj 1712 1315 *~ 4;
#X obj 1820 1407 line 0 10;
#X obj 1713 1396 hip~ 5;
#X obj 1820 1166 - 0;
#X obj 1849 1168 / 100;
#X obj 1748 1166 r vu1-s;
#X obj 1804 1353 r tu1-s;
#X obj 1800 1738 *~;
#X obj 1802 1633 *~ 0.5;
#X obj 1803 1464 noise~;
#X obj 1803 1494 lop~ 3000;
#X obj 1803 1524 *~ 0.1;
#X obj 1803 1604 *~;
#X obj 1833 1601 osc~;
#X obj 1834 1578 / 10;
#X obj 1801 1673 bp~ 346 30;
#X obj 1888 1673 bp~ 960 80;
#X obj 1966 1670 bp~ 2400 100;
#X obj 1966 1696 *~ -2;
#X obj 1888 1700 *~ 4;
#X obj 1801 1700 *~ 4;
#X obj 1909 1792 line 0 10;
#X obj 1802 1781 hip~ 5;
#X obj 1909 1551 - 0;
#X obj 1938 1553 / 100;
#X obj 1837 1551 r vu2-s;
#X obj 1893 1738 r tu2-s;
#X obj 1493 1209 * 60;
#X obj 1534 1209 + 20;
#X obj 1848 1194 * 60;
#X obj 1889 1194 + 20;
#X obj 1513 1638 * 100;
#X obj 1554 1638 + 60;
#X obj 1937 1579 * 100;
#X obj 1978 1579 + 60;
#X obj 2840 596 vsl 19 162 0 1 0 0 te-s te-r empty 0 -9 0 12 #fcfcfc #000000 #000000 0 1;
#X obj 2834 785 vsl 19 162 0 100 0 0 ve-s ve-r empty 0 -9 0 12 #fcfcfc #000000 #000000 0 1;
#X obj 2883 600 vsl 19 162 0 1 0 0 tu-s tu-r empty 0 -9 0 12 #fcfcfc #000000 #000000 0 1;
#X obj 2877 789 vsl 19 162 0 100 0 0 vu-s vu-r empty 0 -9 0 12 #fcfcfc #000000 #000000 0 1;
#X obj 3063 604 vsl 19 162 0 1 0 0 te1-s te1-r empty 0 -9 0 12 #fcfcfc #000000 #000000 0 1;
#X obj 3057 793 vsl 19 162 0 100 0 0 ve1-s ve1-r empty 0 -9 0 12 #fcfcfc #000000 #000000 0 1;
#X obj 3295 600 vsl 19 162 0 1 0 0 te2-s te2-r empty 0 -9 0 12 #fcfcfc #000000 #000000 0 1;
#X obj 3290 785 vsl 19 162 0 100 0 0 ve2-s ve2-r empty 0 -9 0 12 #fcfcfc #000000 #000000 0 1;
#X obj 3102 604 vsl 19 162 0 1 0 0 tu1-s tu1-r empty 0 -9 0 12 #fcfcfc #000000 #000000 0 1;
#X obj 3096 793 vsl 19 162 0 100 0 0 vu1-s vu1-r empty 0 -9 0 12 #fcfcfc #000000 #000000 0 1;
#X obj 3338 598 vsl 19 162 0 1 0 0 tu2-s tu2-r empty 0 -9 0 12 #fcfcfc #000000 #000000 0 1;
#X obj 3332 787 vsl 19 162 0 100 0 0 vu2-s vu2-r empty 0 -9 0 12 #fcfcfc #000000 #000000 0 1;
#X msg 1190 2022 0 200;
#X obj 1171 2078 line~;
#X obj 1152 2104 *~;
#X msg 1420 2047 0 200;
#X obj 1345 2075 line~;
#X obj 1326 2101 *~;
#X msg 1605 2054 0 200;
#X obj 1530 2082 line~;
#X obj 1511 2108 *~;
#X msg 1792 2060 0 200;
#X obj 1717 2088 line~;
#X obj 1698 2114 *~;
#X msg 1976 2063 0 200;
#X obj 1901 2091 line~;
#X obj 1882 2117 *~;
#X msg 1346 2049 0.1 5;
#X msg 1530 2056 0.1 5;
#X msg 1717 2062 0.1 5;
#X msg 1171 2052 0.1 5;
#X obj 1172 1991 r b1on-s;
#X obj 1225 1992 r b1off-s;
#X obj 1345 1985 r b2on-s;
#X obj 1398 1986 r b2off-s;
#X obj 1522 1975 r b3on-s;
#X obj 1575 1976 r b3off-s;
#X obj 1715 1979 r b4on-s;
#X obj 1768 1980 r b4off-s;
#X obj 1890 1978 r b5on-s;
#X obj 1943 1979 r b5off-s;
#X obj 1408 2128 +~;
#X obj 1418 2190 /~ 5;
#X msg 1202 2345 0 200;
#X obj 1183 2401 line~;
#X obj 1164 2427 *~;
#X msg 1432 2370 0 200;
#X obj 1357 2398 line~;
#X obj 1338 2424 *~;
#X msg 1617 2377 0 200;
#X obj 1542 2405 line~;
#X obj 1523 2431 *~;
#X msg 1804 2383 0 200;
#X obj 1729 2411 line~;
#X obj 1710 2437 *~;
#X msg 1988 2386 0 200;
#X obj 1913 2414 line~;
#X obj 1894 2440 *~;
#X msg 1358 2372 0.1 5;
#X msg 1542 2379 0.1 5;
#X msg 1729 2385 0.1 5;
#X msg 1183 2375 0.1 5;
#X obj 1420 2451 +~;
#X obj 1447 2416 /~ 5;
#X msg 2055 2156 0 200;
#X obj 2036 2212 line~;
#X obj 1987 2237 *~;
#X msg 2285 2181 0 200;
#X obj 2210 2209 line~;
#X obj 2191 2235 *~;
#X msg 2470 2188 0 200;
#X obj 2395 2216 line~;
#X obj 2376 2242 *~;
#X msg 2657 2194 0 200;
#X obj 2582 2222 line~;
#X obj 2563 2248 *~;
#X msg 2841 2197 0 200;
#X obj 2766 2225 line~;
#X obj 2747 2251 *~;
#X msg 2211 2183 0.1 5;
#X msg 2395 2190 0.1 5;
#X msg 2582 2196 0.1 5;
#X msg 2036 2186 0.1 5;
#X obj 2273 2262 +~;
#X obj 2201 2465 /~ 5;
#X obj 1175 2286 r c1on-s;
#X obj 1357 2308 r c2on-s;
#X obj 1410 2309 r c2off-s;
#X obj 1534 2298 r c3on-s;
#X obj 1587 2299 r c3off-s;
#X obj 1727 2302 r c4on-s;
#X obj 1780 2303 r c4off-s;
#X obj 1902 2301 r c5on-s;
#X obj 1955 2302 r c5off-s;
#X obj 2037 2125 r d1on-s;
#X obj 2090 2126 r d1off-s;
#X obj 2210 2119 r d2on-s;
#X obj 2263 2120 r d2off-s;
#X obj 2387 2109 r d3on-s;
#X obj 2440 2110 r d3off-s;
#X obj 2580 2113 r d4on-s;
#X obj 2633 2114 r d4off-s;
#X obj 2755 2112 r d5on-s;
#X obj 2808 2113 r d5off-s;
#X obj 1998 882 bng 19 250 50 0 b1on-s b1on-r empty 0 -10 0 12 #fcfcfc #000000 #000000;
#X obj 2028 885 bng 19 250 50 0 b1off-s b1off-r empty 0 -10 0 12 #fcfcfc #000000 #000000;
#X obj 2031 940 bng 19 250 50 0 b2on-s b2on-r empty 0 -10 0 12 #fcfcfc #000000 #000000;
#X obj 2057 939 bng 19 250 50 0 b2off-s b2off-r empty 0 -10 0 12 #fcfcfc #000000 #000000;
#X obj 2090 880 bng 19 250 50 0 b3on-s b3on-r empty 0 -10 0 12 #fcfcfc #000000 #000000;
#X obj 2119 883 bng 19 250 50 0 b3off-s b3off-r empty 0 -10 0 12 #fcfcfc #000000 #000000;
#X obj 2149 947 bng 19 250 50 0 b4on-s b4on-r empty 0 -10 0 12 #fcfcfc #000000 #000000;
#X obj 2176 944 bng 19 250 50 0 b4off-s b4off-r empty 0 -10 0 12 #fcfcfc #000000 #000000;
#X obj 2204 886 bng 19 250 50 0 b5on-s b5on-r empty 0 -10 0 12 #fcfcfc #000000 #000000;
#X obj 2235 889 bng 19 250 50 0 b5off-s b5off-r empty 0 -10 0 12 #fcfcfc #000000 #000000;
#X obj 2528 904 bng 19 250 50 0 c1on-s c1on-r empty 0 -10 0 12 #fcfcfc #000000 #000000;
#X obj 2551 901 bng 19 250 50 0 c1off-s c1off-r empty 0 -10 0 12 #fcfcfc #000000 #000000;
#X obj 2600 865 bng 19 250 50 0 c2on-s c2on-r empty 0 -10 0 12 #fcfcfc #000000 #000000;
#X obj 2626 866 bng 19 250 50 0 c2off-s c2off-r empty 0 -10 0 12 #fcfcfc #000000 #000000;
#X obj 2295 897 bng 19 250 50 0 c3on-s c3on-r empty 0 -10 0 12 #fcfcfc #000000 #000000;
#X obj 2330 896 bng 19 250 50 0 c3off-s c3off-r empty 0 -10 0 12 #fcfcfc #000000 #000000;
#X obj 2379 856 bng 19 250 50 0 c4on-s c4on-r empty 0 -10 0 12 #fcfcfc #000000 #000000;
#X obj 2413 855 bng 19 250 50 0 c4off-s c4off-r empty 0 -10 0 12 #fcfcfc #000000 #000000;
#X obj 2444 901 bng 19 250 50 0 c5on-s c5on-r empty 0 -10 0 12 #fcfcfc #000000 #000000;
#X obj 2476 897 bng 19 250 50 0 c5off-s c5off-r empty 0 -10 0 12 #fcfcfc #000000 #000000;
#X obj 2261 961 bng 19 250 50 0 d1on-s d1on-r empty 0 -10 0 12 #fcfcfc #000000 #000000;
#X obj 2292 962 bng 19 250 50 0 d1off-s d1off-r empty 0 -10 0 12 #fcfcfc #000000 #000000;
#X obj 2300 1005 bng 19 250 50 0 d2on-s d2on-r empty 0 -10 0 12 #fcfcfc #000000 #000000;
#X obj 2328 1004 bng 19 250 50 0 d2off-s d2off-r empty 0 -10 0 12 #fcfcfc #000000 #000000;
#X obj 2379 951 bng 19 250 50 0 d3on-s d3on-r empty 0 -10 0 12 #fcfcfc #000000 #000000;
#X obj 2411 949 bng 19 250 50 0 d3off-s d3off-r empty 0 -10 0 12 #fcfcfc #000000 #000000;
#X obj 2443 1006 bng 19 250 50 0 d4on-s d4on-r empty 0 -10 0 12 #fcfcfc #000000 #000000;
#X obj 2471 1008 bng 19 250 50 0 d4off-s d4off-r empty 0 -10 0 12 #fcfcfc #000000 #000000;
#X obj 2525 955 bng 19 250 50 0 d5on-s d5on-r empty 0 -10 0 12 #fcfcfc #000000 #000000;
#X obj 2551 956 bng 19 250 50 0 d5off-s d5off-r empty 0 -10 0 12 #fcfcfc #000000 #000000;
#X msg 1911 2387 0.1 5;
#X msg 1899 2064 0.1 5;
#X msg 2764 2198 0.1 5;
#X obj 1596 1068 *~ 10;
#X obj 1336 1045 *~ 10;
#X obj 1065 1035 *~ 10;
#X obj 1702 1437 *~ 10;
#X obj 1378 1416 *~ 10;
#X obj 1068 1462 *~ 10;
#X obj 1039 1863 *~ 10;
#X obj 1394 1858 *~ 10;
#X obj 1773 1820 *~ 10;
#X obj 1102 2030 osc~ 805;
#X obj 1265 2016 osc~ 183;
#X obj 1461 2034 osc~ 370;
#X obj 1648 2040 osc~ 457;
#X obj 1829 2038 osc~ 105;
#X obj 1967 2164 osc~ 105;
#X obj 1114 2353 phasor~ 805;
#X obj 1288 2350 phasor~ 183;
#X obj 1473 2357 phasor~ 370;
#X obj 1660 2363 phasor~ 457;
#X obj 1841 2361 phasor~ 105;
#X obj 2141 2161 osc~ 457;
#X obj 2326 2168 osc~ 370;
#X obj 2513 2174 osc~ 183;
#X obj 2694 2172 osc~ 805;
#X obj 1237 2314 r c1off-s;
#X obj 2155 2086 *~;
#X obj 2223 2075 *~;
#X obj 2338 2049 *~;
#X obj 2542 2045 *~;
#X obj 2700 2050 *~;
#X obj 2389 1951 osc~ 40;
#X obj 235 973 + 0.001;
#X msg 109 704 120;
#X msg 175 703 160;
#X msg 643 858 wet 0.4;
#X obj 1019 2169 *~ 6;
#X obj 139 906 *~ 0.9;
#X obj 2115 1115 *~ 0.7;
#X connect 0 0 1 0;
#X connect 0 0 28 0;
#X connect 0 0 71 0;
#X connect 1 0 2 0;
#X connect 2 0 17 0;
#X connect 3 0 15 0;
#X connect 3 0 4 1;
#X connect 4 0 16 0;
#X connect 5 0 13 0;
#X connect 6 0 5 1;
#X connect 7 0 28 0;
#X connect 8 0 9 0;
#X connect 9 0 10 0;
#X connect 9 0 11 0;
#X connect 10 0 9 1;
#X connect 11 0 65 0;
#X connect 12 0 29 0;
#X connect 14 0 3 0;
#X connect 14 0 6 0;
#X connect 18 0 22 0;
#X connect 18 0 64 0;
#X connect 19 0 22 0;
#X connect 20 0 56 0;
#X connect 20 0 61 0;
#X connect 21 0 23 0;
#X connect 22 0 23 0;
#X connect 23 0 24 1;
#X connect 24 0 25 0;
#X connect 25 0 769 0;
#X connect 27 0 2 0;
#X connect 27 1 2 1;
#X connect 28 0 8 0;
#X connect 28 0 18 0;
#X connect 29 0 9 0;
#X connect 29 0 21 0;
#X connect 29 0 19 0;
#X connect 29 0 55 0;
#X connect 30 0 4 0;
#X connect 30 0 5 0;
#X connect 30 0 117 0;
#X connect 31 0 94 0;
#X connect 39 0 40 0;
#X connect 40 0 53 0;
#X connect 41 0 42 0;
#X connect 42 0 53 0;
#X connect 43 0 44 0;
#X connect 44 0 53 0;
#X connect 45 0 46 0;
#X connect 46 0 53 0;
#X connect 47 0 48 0;
#X connect 48 0 53 0;
#X connect 49 0 50 0;
#X connect 50 0 53 0;
#X connect 51 0 52 0;
#X connect 52 0 53 0;
#X connect 53 0 54 1;
#X connect 54 0 76 0;
#X connect 54 0 108 0;
#X connect 55 0 54 0;
#X connect 56 0 19 1;
#X connect 57 0 769 0;
#X connect 58 0 57 1;
#X connect 59 0 60 0;
#X connect 60 0 58 0;
#X connect 61 0 62 0;
#X connect 62 0 63 1;
#X connect 63 0 64 0;
#X connect 64 0 58 0;
#X connect 65 0 66 0;
#X connect 66 0 67 0;
#X connect 66 0 68 0;
#X connect 67 0 66 1;
#X connect 68 0 69 0;
#X connect 69 0 765 0;
#X connect 69 1 766 0;
#X connect 70 0 57 0;
#X connect 71 0 27 0;
#X connect 73 0 75 0;
#X connect 74 0 24 0;
#X connect 75 0 76 1;
#X connect 76 0 109 0;
#X connect 77 0 90 0;
#X connect 77 0 86 0;
#X connect 77 0 85 0;
#X connect 77 0 84 0;
#X connect 77 0 83 0;
#X connect 77 0 115 0;
#X connect 77 0 82 0;
#X connect 77 0 113 0;
#X connect 77 0 114 0;
#X connect 77 0 81 0;
#X connect 77 0 118 0;
#X connect 77 0 112 0;
#X connect 77 0 98 0;
#X connect 77 0 767 0;
#X connect 77 0 116 0;
#X connect 77 0 119 0;
#X connect 80 0 79 0;
#X connect 81 0 80 0;
#X connect 82 0 80 0;
#X connect 83 0 80 0;
#X connect 84 0 80 0;
#X connect 85 0 80 0;
#X connect 86 0 80 0;
#X connect 88 0 89 0;
#X connect 89 0 96 0;
#X connect 90 0 80 0;
#X connect 91 0 92 0;
#X connect 94 0 59 0;
#X connect 94 0 7 0;
#X connect 95 0 764 0;
#X connect 96 0 95 0;
#X connect 98 0 93 0;
#X connect 102 0 80 0;
#X connect 102 0 97 0;
#X connect 103 0 102 0;
#X connect 105 0 103 0;
#X connect 106 0 103 1;
#X connect 107 0 103 2;
#X connect 108 0 74 0;
#X connect 109 0 74 0;
#X connect 110 0 70 0;
#X connect 111 0 26 0;
#X connect 112 0 80 0;
#X connect 113 0 80 0;
#X connect 114 0 80 0;
#X connect 115 0 80 0;
#X connect 116 0 80 0;
#X connect 117 0 80 0;
#X connect 118 0 80 0;
#X connect 119 0 80 0;
#X connect 120 0 121 0;
#X connect 121 0 275 0;
#X connect 121 0 276 0;
#X connect 121 0 277 0;
#X connect 122 0 123 0;
#X connect 123 0 124 0;
#X connect 123 1 125 1;
#X connect 124 0 125 0;
#X connect 125 0 269 0;
#X connect 126 0 237 0;
#X connect 127 0 128 0;
#X connect 128 0 278 0;
#X connect 128 0 279 0;
#X connect 128 0 280 0;
#X connect 129 0 130 0;
#X connect 130 0 131 0;
#X connect 130 1 132 1;
#X connect 131 0 132 0;
#X connect 132 0 271 0;
#X connect 133 0 238 0;
#X connect 134 0 135 0;
#X connect 135 0 288 0;
#X connect 135 0 289 0;
#X connect 135 0 290 0;
#X connect 136 0 137 0;
#X connect 137 0 138 0;
#X connect 137 1 139 1;
#X connect 138 0 139 0;
#X connect 139 0 286 0;
#X connect 140 0 141 0;
#X connect 141 0 142 0;
#X connect 142 0 230 0;
#X connect 143 0 230 1;
#X connect 144 0 143 0;
#X connect 145 0 225 0;
#X connect 146 0 225 0;
#X connect 147 0 225 0;
#X connect 148 0 226 0;
#X connect 149 0 226 0;
#X connect 150 0 226 0;
#X connect 151 0 227 0;
#X connect 152 0 227 0;
#X connect 153 0 227 0;
#X connect 154 0 158 0;
#X connect 154 0 165 0;
#X connect 154 0 159 0;
#X connect 155 0 283 0;
#X connect 156 0 284 0;
#X connect 157 0 175 0;
#X connect 158 0 157 0;
#X connect 159 0 160 0;
#X connect 160 0 175 0;
#X connect 161 0 175 0;
#X connect 162 0 155 0;
#X connect 163 0 168 0;
#X connect 164 0 167 0;
#X connect 165 0 161 0;
#X connect 166 0 162 0;
#X connect 167 0 155 0;
#X connect 168 0 155 0;
#X connect 169 0 170 0;
#X connect 170 0 156 0;
#X connect 171 0 172 0;
#X connect 172 0 156 0;
#X connect 173 0 174 0;
#X connect 174 0 156 0;
#X connect 175 0 282 0;
#X connect 176 0 177 0;
#X connect 177 0 239 0;
#X connect 178 0 179 0;
#X connect 179 0 239 0;
#X connect 180 0 228 0;
#X connect 181 0 182 0;
#X connect 182 0 183 0;
#X connect 183 0 184 0;
#X connect 184 0 154 0;
#X connect 185 0 184 1;
#X connect 186 0 185 0;
#X connect 187 0 163 0;
#X connect 187 0 164 0;
#X connect 187 0 166 0;
#X connect 188 0 189 0;
#X connect 189 0 190 0;
#X connect 190 0 191 0;
#X connect 191 0 187 0;
#X connect 192 0 191 1;
#X connect 193 0 192 0;
#X connect 194 0 169 0;
#X connect 194 0 171 0;
#X connect 194 0 173 0;
#X connect 195 0 196 0;
#X connect 196 0 197 0;
#X connect 197 0 198 0;
#X connect 198 0 194 0;
#X connect 199 0 198 1;
#X connect 200 0 199 0;
#X connect 201 0 285 0;
#X connect 202 0 209 0;
#X connect 202 0 210 0;
#X connect 202 0 211 0;
#X connect 203 0 204 0;
#X connect 204 0 205 0;
#X connect 205 0 206 0;
#X connect 206 0 202 0;
#X connect 207 0 206 1;
#X connect 208 0 207 0;
#X connect 209 0 214 0;
#X connect 210 0 213 0;
#X connect 211 0 212 0;
#X connect 212 0 201 0;
#X connect 213 0 201 0;
#X connect 214 0 201 0;
#X connect 215 0 236 0;
#X connect 216 0 136 0;
#X connect 217 0 450 0;
#X connect 218 0 500 0;
#X connect 219 0 200 0;
#X connect 220 0 544 0;
#X connect 221 0 265 0;
#X connect 222 0 266 0;
#X connect 223 0 267 0;
#X connect 224 0 268 0;
#X connect 225 0 273 0;
#X connect 226 0 274 0;
#X connect 227 0 260 0;
#X connect 228 0 239 0;
#X connect 229 0 176 0;
#X connect 229 0 178 0;
#X connect 229 0 180 0;
#X connect 230 0 229 0;
#X connect 231 0 193 0;
#X connect 232 0 770 0;
#X connect 233 0 261 0;
#X connect 234 0 770 0;
#X connect 235 0 263 0;
#X connect 236 0 120 0;
#X connect 237 0 127 0;
#X connect 238 0 134 0;
#X connect 239 0 281 0;
#X connect 243 0 264 0;
#X connect 244 0 770 0;
#X connect 256 0 122 0;
#X connect 257 0 262 0;
#X connect 258 0 770 0;
#X connect 259 0 258 0;
#X connect 260 0 234 0;
#X connect 261 0 232 1;
#X connect 262 0 244 1;
#X connect 263 0 234 1;
#X connect 264 0 239 1;
#X connect 265 0 175 1;
#X connect 266 0 155 1;
#X connect 267 0 156 1;
#X connect 268 0 201 1;
#X connect 269 0 270 0;
#X connect 270 0 383 0;
#X connect 271 0 272 0;
#X connect 272 0 385 0;
#X connect 273 0 244 0;
#X connect 274 0 232 0;
#X connect 275 0 147 0;
#X connect 276 0 146 0;
#X connect 277 0 145 0;
#X connect 278 0 150 0;
#X connect 279 0 149 0;
#X connect 280 0 148 0;
#X connect 281 0 735 0;
#X connect 282 0 734 0;
#X connect 283 0 770 0;
#X connect 284 0 770 0;
#X connect 285 0 733 0;
#X connect 286 0 287 0;
#X connect 287 0 402 0;
#X connect 288 0 151 0;
#X connect 289 0 152 0;
#X connect 290 0 153 0;
#X connect 291 0 292 0;
#X connect 292 0 308 0;
#X connect 292 0 309 0;
#X connect 292 0 310 0;
#X connect 293 0 294 0;
#X connect 294 0 295 0;
#X connect 294 1 296 1;
#X connect 295 0 296 0;
#X connect 296 0 305 0;
#X connect 297 0 301 0;
#X connect 298 0 301 0;
#X connect 299 0 301 0;
#X connect 300 0 302 0;
#X connect 301 0 307 0;
#X connect 302 0 291 0;
#X connect 303 0 770 0;
#X connect 304 0 303 1;
#X connect 305 0 306 0;
#X connect 306 0 381 0;
#X connect 307 0 303 0;
#X connect 308 0 299 0;
#X connect 309 0 298 0;
#X connect 310 0 297 0;
#X connect 311 0 300 0;
#X connect 312 0 313 0;
#X connect 313 0 329 0;
#X connect 313 0 330 0;
#X connect 313 0 331 0;
#X connect 314 0 315 0;
#X connect 315 0 316 0;
#X connect 315 1 317 1;
#X connect 316 0 317 0;
#X connect 317 0 326 0;
#X connect 318 0 322 0;
#X connect 319 0 322 0;
#X connect 320 0 322 0;
#X connect 321 0 323 0;
#X connect 322 0 328 0;
#X connect 323 0 312 0;
#X connect 324 0 770 0;
#X connect 325 0 324 1;
#X connect 326 0 327 0;
#X connect 327 0 382 0;
#X connect 328 0 324 0;
#X connect 329 0 320 0;
#X connect 330 0 319 0;
#X connect 331 0 318 0;
#X connect 332 0 293 0;
#X connect 333 0 314 0;
#X connect 334 0 304 0;
#X connect 335 0 325 0;
#X connect 336 0 129 0;
#X connect 337 0 349 0;
#X connect 338 0 339 0;
#X connect 339 0 354 0;
#X connect 339 0 355 0;
#X connect 339 0 356 0;
#X connect 340 0 341 0;
#X connect 341 0 342 0;
#X connect 341 1 343 1;
#X connect 342 0 343 0;
#X connect 343 0 351 0;
#X connect 344 0 347 0;
#X connect 345 0 347 0;
#X connect 346 0 347 0;
#X connect 347 0 353 0;
#X connect 348 0 770 0;
#X connect 349 0 338 0;
#X connect 350 0 348 1;
#X connect 351 0 352 0;
#X connect 352 0 387 0;
#X connect 353 0 348 0;
#X connect 354 0 346 0;
#X connect 355 0 345 0;
#X connect 356 0 344 0;
#X connect 357 0 340 0;
#X connect 358 0 350 0;
#X connect 359 0 371 0;
#X connect 360 0 361 0;
#X connect 361 0 376 0;
#X connect 361 0 377 0;
#X connect 361 0 378 0;
#X connect 362 0 363 0;
#X connect 363 0 364 0;
#X connect 363 1 365 1;
#X connect 364 0 365 0;
#X connect 365 0 373 0;
#X connect 366 0 369 0;
#X connect 367 0 369 0;
#X connect 368 0 369 0;
#X connect 369 0 375 0;
#X connect 370 0 770 0;
#X connect 371 0 360 0;
#X connect 372 0 370 1;
#X connect 373 0 374 0;
#X connect 374 0 388 0;
#X connect 375 0 370 0;
#X connect 376 0 368 0;
#X connect 377 0 367 0;
#X connect 378 0 366 0;
#X connect 379 0 337 0;
#X connect 380 0 321 0;
#X connect 381 0 311 0;
#X connect 382 0 380 0;
#X connect 383 0 384 0;
#X connect 384 0 215 0;
#X connect 385 0 386 0;
#X connect 386 0 126 0;
#X connect 387 0 379 0;
#X connect 388 0 389 0;
#X connect 389 0 359 0;
#X connect 392 0 372 0;
#X connect 393 0 362 0;
#X connect 394 0 395 0;
#X connect 395 0 399 0;
#X connect 396 0 397 0;
#X connect 397 0 400 0;
#X connect 398 0 404 0;
#X connect 399 0 398 0;
#X connect 400 0 401 0;
#X connect 401 0 424 0;
#X connect 402 0 403 0;
#X connect 403 0 133 0;
#X connect 404 0 416 0;
#X connect 405 0 406 0;
#X connect 406 0 419 0;
#X connect 406 0 420 0;
#X connect 406 0 421 0;
#X connect 407 0 408 0;
#X connect 408 0 409 0;
#X connect 408 1 410 1;
#X connect 409 0 410 0;
#X connect 410 0 394 0;
#X connect 411 0 414 0;
#X connect 412 0 414 0;
#X connect 413 0 414 0;
#X connect 414 0 417 0;
#X connect 415 0 770 0;
#X connect 416 0 405 0;
#X connect 417 0 415 0;
#X connect 418 0 415 1;
#X connect 419 0 411 0;
#X connect 420 0 412 0;
#X connect 421 0 413 0;
#X connect 422 0 418 0;
#X connect 423 0 407 0;
#X connect 424 0 436 0;
#X connect 425 0 426 0;
#X connect 426 0 439 0;
#X connect 426 0 440 0;
#X connect 426 0 441 0;
#X connect 427 0 428 0;
#X connect 428 0 429 0;
#X connect 428 1 430 1;
#X connect 429 0 430 0;
#X connect 430 0 396 0;
#X connect 431 0 434 0;
#X connect 432 0 434 0;
#X connect 433 0 434 0;
#X connect 434 0 437 0;
#X connect 435 0 770 0;
#X connect 436 0 425 0;
#X connect 437 0 435 0;
#X connect 438 0 435 1;
#X connect 439 0 431 0;
#X connect 440 0 432 0;
#X connect 441 0 433 0;
#X connect 442 0 427 0;
#X connect 443 0 438 0;
#X connect 450 0 476 0;
#X connect 451 0 144 0;
#X connect 452 0 451 0;
#X connect 453 0 454 0;
#X connect 454 0 455 0;
#X connect 455 0 465 0;
#X connect 456 0 465 1;
#X connect 457 0 456 0;
#X connect 458 0 459 0;
#X connect 459 0 466 0;
#X connect 460 0 461 0;
#X connect 461 0 466 0;
#X connect 462 0 463 0;
#X connect 463 0 466 0;
#X connect 464 0 458 0;
#X connect 464 0 460 0;
#X connect 464 0 462 0;
#X connect 465 0 464 0;
#X connect 466 0 468 0;
#X connect 467 0 466 1;
#X connect 468 0 738 0;
#X connect 469 0 475 0;
#X connect 470 0 457 0;
#X connect 471 0 469 0;
#X connect 472 0 467 0;
#X connect 475 0 499 0;
#X connect 476 0 452 0;
#X connect 477 0 478 0;
#X connect 478 0 479 0;
#X connect 479 0 489 0;
#X connect 480 0 489 1;
#X connect 481 0 480 0;
#X connect 482 0 483 0;
#X connect 483 0 490 0;
#X connect 484 0 485 0;
#X connect 485 0 490 0;
#X connect 486 0 487 0;
#X connect 487 0 490 0;
#X connect 488 0 482 0;
#X connect 488 0 484 0;
#X connect 488 0 486 0;
#X connect 489 0 488 0;
#X connect 490 0 492 0;
#X connect 491 0 490 1;
#X connect 492 0 739 0;
#X connect 493 0 494 0;
#X connect 494 0 497 0;
#X connect 495 0 493 0;
#X connect 496 0 491 0;
#X connect 497 0 498 0;
#X connect 498 0 481 0;
#X connect 499 0 470 0;
#X connect 500 0 503 0;
#X connect 501 0 186 0;
#X connect 502 0 501 0;
#X connect 503 0 502 0;
#X connect 504 0 506 0;
#X connect 504 0 510 0;
#X connect 504 0 507 0;
#X connect 505 0 511 0;
#X connect 506 0 505 0;
#X connect 507 0 508 0;
#X connect 508 0 511 0;
#X connect 509 0 511 0;
#X connect 510 0 509 0;
#X connect 511 0 519 0;
#X connect 512 0 513 0;
#X connect 513 0 514 0;
#X connect 514 0 515 0;
#X connect 515 0 504 0;
#X connect 516 0 515 1;
#X connect 517 0 516 0;
#X connect 518 0 511 1;
#X connect 519 0 737 0;
#X connect 520 0 521 0;
#X connect 521 0 588 0;
#X connect 522 0 520 0;
#X connect 523 0 518 0;
#X connect 524 0 526 0;
#X connect 524 0 530 0;
#X connect 524 0 527 0;
#X connect 525 0 531 0;
#X connect 526 0 525 0;
#X connect 527 0 528 0;
#X connect 528 0 531 0;
#X connect 529 0 531 0;
#X connect 530 0 529 0;
#X connect 531 0 539 0;
#X connect 532 0 533 0;
#X connect 533 0 534 0;
#X connect 534 0 535 0;
#X connect 535 0 524 0;
#X connect 536 0 535 1;
#X connect 537 0 536 0;
#X connect 538 0 531 1;
#X connect 539 0 740 0;
#X connect 540 0 541 0;
#X connect 541 0 592 0;
#X connect 542 0 540 0;
#X connect 543 0 538 0;
#X connect 544 0 547 0;
#X connect 545 0 208 0;
#X connect 546 0 545 0;
#X connect 547 0 546 0;
#X connect 548 0 563 0;
#X connect 549 0 556 0;
#X connect 549 0 557 0;
#X connect 549 0 558 0;
#X connect 550 0 551 0;
#X connect 551 0 552 0;
#X connect 552 0 553 0;
#X connect 553 0 549 0;
#X connect 554 0 553 1;
#X connect 555 0 554 0;
#X connect 556 0 561 0;
#X connect 557 0 560 0;
#X connect 558 0 559 0;
#X connect 559 0 548 0;
#X connect 560 0 548 0;
#X connect 561 0 548 0;
#X connect 562 0 548 1;
#X connect 563 0 736 0;
#X connect 564 0 565 0;
#X connect 565 0 590 0;
#X connect 566 0 564 0;
#X connect 567 0 562 0;
#X connect 568 0 583 0;
#X connect 569 0 576 0;
#X connect 569 0 577 0;
#X connect 569 0 578 0;
#X connect 570 0 571 0;
#X connect 571 0 572 0;
#X connect 572 0 573 0;
#X connect 573 0 569 0;
#X connect 574 0 573 1;
#X connect 575 0 574 0;
#X connect 576 0 581 0;
#X connect 577 0 580 0;
#X connect 578 0 579 0;
#X connect 579 0 568 0;
#X connect 580 0 568 0;
#X connect 581 0 568 0;
#X connect 582 0 568 1;
#X connect 583 0 741 0;
#X connect 584 0 585 0;
#X connect 585 0 594 0;
#X connect 586 0 584 0;
#X connect 587 0 582 0;
#X connect 588 0 589 0;
#X connect 589 0 517 0;
#X connect 590 0 591 0;
#X connect 591 0 555 0;
#X connect 592 0 593 0;
#X connect 593 0 537 0;
#X connect 594 0 595 0;
#X connect 595 0 575 0;
#X connect 608 0 609 0;
#X connect 609 0 610 1;
#X connect 610 0 637 0;
#X connect 611 0 612 0;
#X connect 612 0 613 1;
#X connect 613 0 637 0;
#X connect 614 0 615 0;
#X connect 615 0 616 1;
#X connect 616 0 637 1;
#X connect 617 0 618 0;
#X connect 618 0 619 1;
#X connect 619 0 637 1;
#X connect 620 0 621 0;
#X connect 621 0 622 1;
#X connect 622 0 637 1;
#X connect 623 0 612 0;
#X connect 624 0 615 0;
#X connect 625 0 618 0;
#X connect 626 0 609 0;
#X connect 627 0 626 0;
#X connect 628 0 608 0;
#X connect 629 0 623 0;
#X connect 630 0 611 0;
#X connect 631 0 624 0;
#X connect 632 0 614 0;
#X connect 633 0 625 0;
#X connect 634 0 617 0;
#X connect 635 0 731 0;
#X connect 636 0 620 0;
#X connect 637 0 638 0;
#X connect 638 0 768 0;
#X connect 639 0 640 0;
#X connect 640 0 641 1;
#X connect 641 0 658 0;
#X connect 642 0 643 0;
#X connect 643 0 644 1;
#X connect 644 0 658 0;
#X connect 645 0 646 0;
#X connect 646 0 647 1;
#X connect 647 0 658 1;
#X connect 648 0 649 0;
#X connect 649 0 650 1;
#X connect 650 0 658 1;
#X connect 651 0 652 0;
#X connect 652 0 653 1;
#X connect 653 0 658 1;
#X connect 654 0 643 0;
#X connect 655 0 646 0;
#X connect 656 0 649 0;
#X connect 657 0 640 0;
#X connect 658 0 659 0;
#X connect 659 0 768 0;
#X connect 660 0 661 0;
#X connect 661 0 662 1;
#X connect 662 0 679 0;
#X connect 663 0 664 0;
#X connect 664 0 665 1;
#X connect 665 0 679 0;
#X connect 666 0 667 0;
#X connect 667 0 668 1;
#X connect 668 0 679 1;
#X connect 669 0 670 0;
#X connect 670 0 671 1;
#X connect 671 0 679 1;
#X connect 672 0 673 0;
#X connect 673 0 674 1;
#X connect 674 0 679 1;
#X connect 675 0 664 0;
#X connect 676 0 667 0;
#X connect 677 0 670 0;
#X connect 678 0 661 0;
#X connect 679 0 680 0;
#X connect 680 0 768 0;
#X connect 681 0 657 0;
#X connect 682 0 654 0;
#X connect 683 0 642 0;
#X connect 684 0 655 0;
#X connect 685 0 645 0;
#X connect 686 0 656 0;
#X connect 687 0 648 0;
#X connect 688 0 730 0;
#X connect 689 0 651 0;
#X connect 690 0 678 0;
#X connect 691 0 660 0;
#X connect 692 0 675 0;
#X connect 693 0 663 0;
#X connect 694 0 676 0;
#X connect 695 0 666 0;
#X connect 696 0 677 0;
#X connect 697 0 669 0;
#X connect 698 0 732 0;
#X connect 699 0 672 0;
#X connect 730 0 652 0;
#X connect 731 0 621 0;
#X connect 732 0 673 0;
#X connect 733 0 770 0;
#X connect 734 0 770 0;
#X connect 735 0 770 0;
#X connect 736 0 770 0;
#X connect 737 0 770 0;
#X connect 738 0 770 0;
#X connect 739 0 770 0;
#X connect 740 0 770 0;
#X connect 741 0 770 0;
#X connect 742 0 610 0;
#X connect 743 0 613 0;
#X connect 744 0 616 0;
#X connect 745 0 619 0;
#X connect 746 0 622 0;
#X connect 747 0 758 0;
#X connect 748 0 641 0;
#X connect 749 0 644 0;
#X connect 750 0 647 0;
#X connect 751 0 650 0;
#X connect 752 0 653 0;
#X connect 753 0 759 0;
#X connect 754 0 760 0;
#X connect 755 0 761 0;
#X connect 756 0 762 0;
#X connect 757 0 639 0;
#X connect 758 0 662 0;
#X connect 759 0 665 0;
#X connect 760 0 668 0;
#X connect 761 0 671 0;
#X connect 762 0 674 0;
#X connect 763 0 758 1;
#X connect 763 0 759 1;
#X connect 763 0 760 1;
#X connect 763 0 761 1;
#X connect 763 0 762 1;
#X connect 764 0 769 1;
#X connect 765 0 110 0;
#X connect 766 0 110 0;
#X connect 767 0 111 0;
#X connect 768 0 26 1;
#X connect 769 0 111 0;
#X connect 770 0 26 1;
